<mxfile host="app.diagrams.net" modified="2020-09-28T09:05:00.740Z" agent="5.0 (Windows NT 10.0; Win64; x64) AppleWebKit/537.36 (KHTML, like Gecko) Chrome/85.0.4183.121 Safari/537.36" etag="0XRRQfDS6fQ7yFcR0-vG" version="13.7.5" type="github">
  <diagram id="C5RBs43oDa-KdzZeNtuy" name="Page-1">
    <mxGraphModel dx="1422" dy="713" grid="1" gridSize="10" guides="1" tooltips="1" connect="1" arrows="1" fold="1" page="1" pageScale="1" pageWidth="827" pageHeight="1169" background="#F1FAEE" math="0" shadow="0">
      <root>
        <mxCell id="WIyWlLk6GJQsqaUBKTNV-0" />
        <mxCell id="WIyWlLk6GJQsqaUBKTNV-1" parent="WIyWlLk6GJQsqaUBKTNV-0" />
        <mxCell id="WIyWlLk6GJQsqaUBKTNV-3" value="Запуск сервиса" style="whiteSpace=wrap;html=1;fontSize=12;glass=0;strokeWidth=1;shadow=0;fillColor=#A8DADC;strokeColor=#457B9D;fontColor=#1D3557;rounded=1;sketch=1;" parent="WIyWlLk6GJQsqaUBKTNV-1" vertex="1">
          <mxGeometry x="155" y="76" width="120" height="40" as="geometry" />
        </mxCell>
        <mxCell id="ei2E0hYxkOMxhw5Zh2C0-5" value="Информации достаточно, чтобы система назначила консультанта?" style="rhombus;whiteSpace=wrap;html=1;fillColor=#A8DADC;strokeColor=#457B9D;fontColor=#1D3557;rounded=1;sketch=1;" vertex="1" parent="WIyWlLk6GJQsqaUBKTNV-1">
          <mxGeometry x="145" y="300" width="140" height="130" as="geometry" />
        </mxCell>
        <mxCell id="ei2E0hYxkOMxhw5Zh2C0-16" value="" style="endArrow=classic;html=1;exitX=0.5;exitY=1;exitDx=0;exitDy=0;entryX=0.5;entryY=0;entryDx=0;entryDy=0;labelBackgroundColor=#F1FAEE;strokeColor=#457B9D;fontColor=#1D3557;curved=1;sketch=1;" edge="1" parent="WIyWlLk6GJQsqaUBKTNV-1" source="ei2E0hYxkOMxhw5Zh2C0-23" target="ei2E0hYxkOMxhw5Zh2C0-5">
          <mxGeometry width="50" height="50" relative="1" as="geometry">
            <mxPoint x="285" y="325" as="sourcePoint" />
            <mxPoint x="440" y="320" as="targetPoint" />
            <Array as="points" />
          </mxGeometry>
        </mxCell>
        <mxCell id="ei2E0hYxkOMxhw5Zh2C0-17" value="да" style="text;html=1;strokeColor=none;fillColor=none;align=center;verticalAlign=middle;whiteSpace=wrap;fontColor=#1D3557;rounded=1;sketch=1;" vertex="1" parent="WIyWlLk6GJQsqaUBKTNV-1">
          <mxGeometry x="300" y="370" width="40" height="20" as="geometry" />
        </mxCell>
        <mxCell id="ei2E0hYxkOMxhw5Zh2C0-18" value="нет" style="text;html=1;strokeColor=none;fillColor=none;align=center;verticalAlign=middle;whiteSpace=wrap;fontColor=#1D3557;rounded=1;sketch=1;" vertex="1" parent="WIyWlLk6GJQsqaUBKTNV-1">
          <mxGeometry x="100" y="370" width="40" height="20" as="geometry" />
        </mxCell>
        <mxCell id="ei2E0hYxkOMxhw5Zh2C0-20" value="&lt;span&gt;Ввод запроса клиентом&lt;br&gt;на тур продукт&lt;/span&gt;" style="whiteSpace=wrap;html=1;fillColor=#A8DADC;strokeColor=#457B9D;fontColor=#1D3557;rounded=1;sketch=1;" vertex="1" parent="WIyWlLk6GJQsqaUBKTNV-1">
          <mxGeometry x="155" y="134" width="120" height="60" as="geometry" />
        </mxCell>
        <mxCell id="ei2E0hYxkOMxhw5Zh2C0-23" value="Анализ системой запроса клиента" style="whiteSpace=wrap;html=1;fillColor=#A8DADC;strokeColor=#457B9D;fontColor=#1D3557;rounded=1;sketch=1;" vertex="1" parent="WIyWlLk6GJQsqaUBKTNV-1">
          <mxGeometry x="155" y="220" width="120" height="60" as="geometry" />
        </mxCell>
        <mxCell id="ei2E0hYxkOMxhw5Zh2C0-27" value="" style="endArrow=classic;html=1;exitX=0.5;exitY=1;exitDx=0;exitDy=0;labelBackgroundColor=#F1FAEE;strokeColor=#457B9D;fontColor=#1D3557;curved=1;sketch=1;" edge="1" parent="WIyWlLk6GJQsqaUBKTNV-1" source="ei2E0hYxkOMxhw5Zh2C0-20">
          <mxGeometry width="50" height="50" relative="1" as="geometry">
            <mxPoint x="225" y="290" as="sourcePoint" />
            <mxPoint x="215" y="220" as="targetPoint" />
            <Array as="points" />
          </mxGeometry>
        </mxCell>
        <mxCell id="ei2E0hYxkOMxhw5Zh2C0-28" value="" style="endArrow=classic;html=1;exitX=0.5;exitY=1;exitDx=0;exitDy=0;entryX=0.5;entryY=0;entryDx=0;entryDy=0;labelBackgroundColor=#F1FAEE;strokeColor=#457B9D;fontColor=#1D3557;curved=1;sketch=1;" edge="1" parent="WIyWlLk6GJQsqaUBKTNV-1" source="WIyWlLk6GJQsqaUBKTNV-3" target="ei2E0hYxkOMxhw5Zh2C0-20">
          <mxGeometry width="50" height="50" relative="1" as="geometry">
            <mxPoint x="225" y="204" as="sourcePoint" />
            <mxPoint x="215" y="130" as="targetPoint" />
            <Array as="points" />
          </mxGeometry>
        </mxCell>
        <mxCell id="ei2E0hYxkOMxhw5Zh2C0-29" value="Система задает дополнительные вопросы клиенту" style="whiteSpace=wrap;html=1;fillColor=#A8DADC;strokeColor=#457B9D;fontColor=#1D3557;rounded=1;sketch=1;" vertex="1" parent="WIyWlLk6GJQsqaUBKTNV-1">
          <mxGeometry x="20" y="220" width="120" height="60" as="geometry" />
        </mxCell>
        <mxCell id="ei2E0hYxkOMxhw5Zh2C0-30" value="" style="endArrow=classic;html=1;exitX=0;exitY=0.5;exitDx=0;exitDy=0;entryX=0.5;entryY=1;entryDx=0;entryDy=0;labelBackgroundColor=#F1FAEE;strokeColor=#457B9D;fontColor=#1D3557;curved=1;sketch=1;" edge="1" parent="WIyWlLk6GJQsqaUBKTNV-1" source="ei2E0hYxkOMxhw5Zh2C0-5" target="ei2E0hYxkOMxhw5Zh2C0-29">
          <mxGeometry width="50" height="50" relative="1" as="geometry">
            <mxPoint x="390" y="360" as="sourcePoint" />
            <mxPoint x="440" y="310" as="targetPoint" />
            <Array as="points">
              <mxPoint x="80" y="365" />
            </Array>
          </mxGeometry>
        </mxCell>
        <mxCell id="ei2E0hYxkOMxhw5Zh2C0-32" value="" style="endArrow=classic;html=1;exitX=1;exitY=0.5;exitDx=0;exitDy=0;entryX=0;entryY=0.5;entryDx=0;entryDy=0;labelBackgroundColor=#F1FAEE;strokeColor=#457B9D;fontColor=#1D3557;curved=1;sketch=1;" edge="1" parent="WIyWlLk6GJQsqaUBKTNV-1" source="ei2E0hYxkOMxhw5Zh2C0-29" target="ei2E0hYxkOMxhw5Zh2C0-23">
          <mxGeometry width="50" height="50" relative="1" as="geometry">
            <mxPoint x="390" y="360" as="sourcePoint" />
            <mxPoint x="150" y="250" as="targetPoint" />
          </mxGeometry>
        </mxCell>
        <mxCell id="ei2E0hYxkOMxhw5Zh2C0-33" value="Консультирование&lt;br&gt;клиента по запросу, поиск предложений" style="whiteSpace=wrap;html=1;fillColor=#A8DADC;strokeColor=#457B9D;fontColor=#1D3557;rounded=1;sketch=1;" vertex="1" parent="WIyWlLk6GJQsqaUBKTNV-1">
          <mxGeometry x="293.5" y="220" width="120" height="60" as="geometry" />
        </mxCell>
        <mxCell id="ei2E0hYxkOMxhw5Zh2C0-34" value="" style="endArrow=classic;html=1;exitX=1;exitY=0.5;exitDx=0;exitDy=0;entryX=0.5;entryY=1;entryDx=0;entryDy=0;labelBackgroundColor=#F1FAEE;strokeColor=#457B9D;fontColor=#1D3557;curved=1;sketch=1;" edge="1" parent="WIyWlLk6GJQsqaUBKTNV-1" source="ei2E0hYxkOMxhw5Zh2C0-5" target="ei2E0hYxkOMxhw5Zh2C0-33">
          <mxGeometry width="50" height="50" relative="1" as="geometry">
            <mxPoint x="155" y="375" as="sourcePoint" />
            <mxPoint x="90" y="290" as="targetPoint" />
            <Array as="points">
              <mxPoint x="354" y="365" />
            </Array>
          </mxGeometry>
        </mxCell>
        <mxCell id="ei2E0hYxkOMxhw5Zh2C0-36" value="Предложение&amp;nbsp; удовлетворяет&lt;br&gt;&amp;nbsp;клиента?" style="rhombus;whiteSpace=wrap;html=1;fillColor=#A8DADC;strokeColor=#457B9D;fontColor=#1D3557;rounded=1;sketch=1;" vertex="1" parent="WIyWlLk6GJQsqaUBKTNV-1">
          <mxGeometry x="440" y="185" width="140" height="130" as="geometry" />
        </mxCell>
        <mxCell id="ei2E0hYxkOMxhw5Zh2C0-37" value="" style="endArrow=classic;html=1;exitX=1;exitY=0.5;exitDx=0;exitDy=0;entryX=0;entryY=0.5;entryDx=0;entryDy=0;labelBackgroundColor=#F1FAEE;strokeColor=#457B9D;fontColor=#1D3557;curved=1;sketch=1;" edge="1" parent="WIyWlLk6GJQsqaUBKTNV-1" source="ei2E0hYxkOMxhw5Zh2C0-33" target="ei2E0hYxkOMxhw5Zh2C0-36">
          <mxGeometry width="50" height="50" relative="1" as="geometry">
            <mxPoint x="150" y="260" as="sourcePoint" />
            <mxPoint x="165" y="260" as="targetPoint" />
          </mxGeometry>
        </mxCell>
        <mxCell id="ei2E0hYxkOMxhw5Zh2C0-38" value="" style="endArrow=classic;html=1;exitX=1;exitY=0.5;exitDx=0;exitDy=0;entryX=0;entryY=0.5;entryDx=0;entryDy=0;labelBackgroundColor=#F1FAEE;strokeColor=#457B9D;fontColor=#1D3557;curved=1;sketch=1;" edge="1" parent="WIyWlLk6GJQsqaUBKTNV-1" source="ei2E0hYxkOMxhw5Zh2C0-23" target="ei2E0hYxkOMxhw5Zh2C0-33">
          <mxGeometry width="50" height="50" relative="1" as="geometry">
            <mxPoint x="390" y="360" as="sourcePoint" />
            <mxPoint x="440" y="310" as="targetPoint" />
          </mxGeometry>
        </mxCell>
        <mxCell id="ei2E0hYxkOMxhw5Zh2C0-41" value="да" style="text;html=1;strokeColor=none;fillColor=none;align=center;verticalAlign=middle;whiteSpace=wrap;fontColor=#1D3557;rounded=1;sketch=1;" vertex="1" parent="WIyWlLk6GJQsqaUBKTNV-1">
          <mxGeometry x="574" y="220" width="40" height="20" as="geometry" />
        </mxCell>
        <mxCell id="ei2E0hYxkOMxhw5Zh2C0-42" value="" style="endArrow=classic;html=1;exitX=0.5;exitY=0;exitDx=0;exitDy=0;entryX=0.5;entryY=0;entryDx=0;entryDy=0;labelBackgroundColor=#F1FAEE;strokeColor=#457B9D;fontColor=#1D3557;curved=1;sketch=1;" edge="1" parent="WIyWlLk6GJQsqaUBKTNV-1" source="ei2E0hYxkOMxhw5Zh2C0-36" target="ei2E0hYxkOMxhw5Zh2C0-33">
          <mxGeometry width="50" height="50" relative="1" as="geometry">
            <mxPoint x="155" y="375" as="sourcePoint" />
            <mxPoint x="360" y="120" as="targetPoint" />
            <Array as="points">
              <mxPoint x="510" y="120" />
              <mxPoint x="354" y="120" />
            </Array>
          </mxGeometry>
        </mxCell>
        <mxCell id="ei2E0hYxkOMxhw5Zh2C0-43" value="нет" style="text;html=1;strokeColor=none;fillColor=none;align=center;verticalAlign=middle;whiteSpace=wrap;fontColor=#1D3557;rounded=1;sketch=1;" vertex="1" parent="WIyWlLk6GJQsqaUBKTNV-1">
          <mxGeometry x="410" y="92" width="40" height="20" as="geometry" />
        </mxCell>
        <mxCell id="ei2E0hYxkOMxhw5Zh2C0-44" value="" style="endArrow=classic;html=1;exitX=1;exitY=0.5;exitDx=0;exitDy=0;labelBackgroundColor=#F1FAEE;strokeColor=#457B9D;fontColor=#1D3557;curved=1;sketch=1;" edge="1" parent="WIyWlLk6GJQsqaUBKTNV-1" source="ei2E0hYxkOMxhw5Zh2C0-36">
          <mxGeometry width="50" height="50" relative="1" as="geometry">
            <mxPoint x="423.5" y="260" as="sourcePoint" />
            <mxPoint x="620" y="250" as="targetPoint" />
          </mxGeometry>
        </mxCell>
        <mxCell id="ei2E0hYxkOMxhw5Zh2C0-45" value="Вывод продукта: оказание информационной поддержки,&lt;br&gt;оформление сопутствующей документации" style="whiteSpace=wrap;html=1;fontSize=12;glass=0;strokeWidth=1;shadow=0;fillColor=#A8DADC;strokeColor=#457B9D;fontColor=#1D3557;rounded=1;sketch=1;" vertex="1" parent="WIyWlLk6GJQsqaUBKTNV-1">
          <mxGeometry x="620" y="170" width="120" height="160" as="geometry" />
        </mxCell>
        <mxCell id="ei2E0hYxkOMxhw5Zh2C0-46" value="Text" style="text;html=1;strokeColor=none;fillColor=none;align=center;verticalAlign=middle;whiteSpace=wrap;rounded=0;sketch=1;fontColor=#1D3557;" vertex="1" parent="WIyWlLk6GJQsqaUBKTNV-1">
          <mxGeometry x="390" y="300" width="40" height="20" as="geometry" />
        </mxCell>
        <mxCell id="ei2E0hYxkOMxhw5Zh2C0-47" value="Text" style="text;html=1;strokeColor=none;fillColor=none;align=center;verticalAlign=middle;whiteSpace=wrap;rounded=0;sketch=1;fontColor=#1D3557;" vertex="1" parent="WIyWlLk6GJQsqaUBKTNV-1">
          <mxGeometry x="390" y="300" width="40" height="20" as="geometry" />
        </mxCell>
        <mxCell id="ei2E0hYxkOMxhw5Zh2C0-48" value="&lt;h1&gt;Цикл работы сервиса&lt;/h1&gt;&lt;p&gt;&lt;br&gt;&lt;/p&gt;" style="text;html=1;strokeColor=none;fillColor=none;spacing=5;spacingTop=-20;whiteSpace=wrap;overflow=hidden;rounded=0;sketch=1;fontColor=#1D3557;" vertex="1" parent="WIyWlLk6GJQsqaUBKTNV-1">
          <mxGeometry x="265" y="14" width="290" height="36" as="geometry" />
        </mxCell>
      </root>
    </mxGraphModel>
  </diagram>
</mxfile>
